<svg width="200" height="200" viewBox="0 0 200 200" xmlns="http://www.w3.org/2000/svg">

  <defs>
    <linearGradient id="pyramidGradient" x1="0%" y1="0%" x2="0%" y2="100%">
      <stop offset="0%" style="stop-color:#1E1E1E;stop-opacity:1" />
      <stop offset="50%" style="stop-color:#E63946;stop-opacity:1" />
      <stop offset="100%" style="stop-color:#1E1E1E;stop-opacity:1" />
    </linearGradient>
    <linearGradient id="circleGradient" x1="0%" y1="0%" x2="100%" y2="100%">
      <stop offset="0%" style="stop-color:#E63946;stop-opacity:1" />
      <stop offset="50%" style="stop-color:#1E1E1E;stop-opacity:1" />
      <stop offset="100%" style="stop-color:#E63946;stop-opacity:1" />
    </linearGradient>
  </defs>

  <!-- 1. Fondo Blanco -->
  <rect width="100%" height="100%" fill="white"/>

  <!-- Círculo exterior con degradado -->
  <circle cx="100" cy="100" r="95" stroke="url(#circleGradient)" stroke-width="6" fill="none" />

  <!-- Grupo de elementos del logo -->
  <g>
    <!-- 2. 'A' como Pirámide (corregida) -->
    <path d="M 30 160 L 80 40 L 130 160 Z" fill="url(#pyramidGradient)" />
    <path d="M 60 160 L 80 110 L 100 160 Z" fill="white" />

    <!-- 3. 'Z' con Símbolos de Código -->
    <g stroke="#1E1E1E" stroke-width="18" stroke-linecap="round" stroke-linejoin="round" fill="none">
      <path d="M 150 40 L 170 60 L 150 80" />
      <path d="M 140 133 L 120 113 L 140 93" />
    </g>

    <!-- 4. Línea transversal (corregida) -->
    <!-- <path d="M 5 100 C 40 120, 40 120, 65 130 L 95 130 C 110 90, 130 80, 142 88 C 160 70, 170 85, 195 100" stroke="url(#circleGradient)" stroke-width="2.5" fill="none" /> -->
  </g>

</svg>
